mastitorrents.com
 
http://mastitorrents.com/forums/torrents.php

Info -
Cast -
Atul Kulkarn
Jyoti Chandekar
Kavita Lad-Medhekar
Tushar Dalvi

Plot -
Sukhaant? deals with the controversial subject of mercy killing. It discusses the right of people with no hope of living to die honorably. Atul Kulkarni plays the protagonist, whose mother is afflicted with a grave ailment. She asks her son to give her the right to die with her own choice. Having made up her mind, the mother forces her son to seek court approval for her self-willed death.

Media Info -
General
Name : Sukhaant
Format : AVI
Format/Info : Audio Video Interleave
Format profile : OpenDML
File size : 691 MiB
Duration : 1h 35mn
Overall bit rate : 1 007 Kbps
Writing application : AVI-Mux GUI 1.17.8.3, Feb 16 201019:42:50

Video
ID : 0
Format : MPEG-4 Visual
Format profile : Advanced Simple@L5
Format settings, BVOP : Yes
Format settings, QPel : No
Format settings, GMC : No warppoints
Format settings, Matrix : Default (H.263)
Codec ID : XVID
Codec ID/Hint : XviD
Duration : 1h 35mn
Bit rate : 940 Kbps
Width : 640 pixels
Height : 272 pixels
Display aspect ratio : 2.35:1
Frame rate : 23.976 fps
Color space : YUV
Chroma subsampling : 4:2:0
Bit depth : 8 bits
Scan type : Progressive
Bits/(Pixel*Frame) : 0.225
Stream size : 644 MiB (93%)
Writing library : XviD 1.2.1 (UTC 2008-12-04)

Audio
ID : 1
Format : MPEG Audio
Format version : Version 2
Format profile : Layer 3
Mode : Joint stereo
Mode extension : MS Stereo
Codec ID : 55
Codec ID/Hint : MP3
Duration : 1h 35mn
Bit rate mode : Constant
Bit rate : 64.0 Kbps
Channel(s) : 2 channels
Sampling rate : 24.0 KHz
Stream size : 43.9 MiB (6%)
Alignment : Aligned on interleaves
Interleave, duration : 796 ms (19.08 video frames)
Interleave, preload duration : 216 ms